<?xml version="1.0" standalone="no"?>
<!DOCTYPE svg PUBLIC "-//W3C//DTD SVG 20010904//EN"
 "http://www.w3.org/TR/2001/REC-SVG-20010904/DTD/svg10.dtd">
<svg version="1.0" xmlns="http://www.w3.org/2000/svg"
 width="512.000000pt" height="512.000000pt" viewBox="0 0 512.000000 512.000000"
 preserveAspectRatio="xMidYMid meet">
<metadata>
Created by potrace 1.14, written by Peter Selinger 2001-2017
</metadata>
<g transform="translate(0.000000,512.000000) scale(0.100000,-0.100000)"
fill="#000000" stroke="none">
<path d="M2114 4748 c-8 -12 -138 -95 -169 -107 -5 -2 -12 -7 -15 -10 -4 -6
-38 -27 -196 -121 -23 -14 -139 -85 -258 -158 l-217 -134 133 -75 c73 -42 147
-84 163 -94 17 -10 46 -27 66 -38 20 -11 99 -57 175 -102 77 -45 148 -81 159
-81 11 0 115 57 230 128 116 70 224 135 241 145 88 50 405 242 402 244 -7 5
-390 225 -393 225 -2 0 -40 23 -85 50 -45 28 -83 50 -85 50 -9 0 -131 74 -136
83 -4 5 -10 3 -15 -5z"/>
<path d="M3075 4389 c-127 -77 -239 -146 -250 -152 -11 -7 -42 -26 -70 -43
-47 -29 -387 -237 -447 -273 -62 -37 -413 -251 -536 -327 l-133 -82 73 -43
c40 -23 165 -96 277 -162 112 -65 218 -127 235 -137 37 -21 616 -359 666 -389
19 -11 52 -30 72 -41 21 -11 78 -45 128 -75 50 -30 93 -55 95 -55 2 0 41 -22
86 -49 l82 -50 46 26 c25 15 53 32 61 38 8 7 22 15 30 19 8 4 24 12 35 19 11
7 65 39 120 71 229 135 501 297 515 305 8 6 70 43 138 83 68 40 140 83 160 96
20 12 46 27 57 32 51 25 520 310 522 317 2 4 -30 27 -70 50 -39 22 -427 249
-861 502 -434 254 -792 461 -795 461 -3 0 -110 -63 -236 -141z"/>
<path d="M879 3620 c-15 -11 -37 -26 -50 -33 -13 -7 -112 -65 -219 -130 -107
-65 -204 -124 -215 -130 -11 -6 -42 -26 -70 -43 -27 -17 -57 -34 -65 -37 -8
-4 -33 -18 -55 -32 -22 -14 -61 -38 -87 -53 -26 -15 -46 -31 -45 -36 2 -7 231
-149 290 -181 17 -8 52 -29 328 -194 236 -141 243 -144 268 -130 14 8 46 26
71 40 25 13 47 27 50 30 3 3 12 8 20 12 8 3 89 50 180 104 l165 98 2 210 3
210 -28 16 c-15 9 -135 80 -267 157 -131 78 -242 142 -245 142 -3 0 -17 -9
-31 -20z"/>
<path d="M4875 3303 c-132 -79 -258 -155 -280 -168 -22 -12 -173 -102 -335
-200 -162 -97 -426 -255 -586 -351 l-291 -173 0 -976 c0 -536 1 -975 3 -975 1
0 40 22 86 48 46 27 241 140 433 251 193 112 391 227 440 256 50 29 221 128
380 220 160 92 314 182 343 199 l52 31 0 992 c0 546 -1 993 -2 992 -2 0 -111
-66 -243 -146z m-94 -927 c1 -6 2 -52 3 -103 l1 -92 -36 1 -36 0 1 55 c1 30
-2 59 -6 66 -4 7 -30 12 -60 12 -52 0 -53 1 -54 30 0 17 1 32 2 36 5 10 184 6
185 -5z m-361 -261 l0 -135 128 0 128 0 -1 -47 -1 -48 -119 -1 c-66 -1 -123
-2 -127 -3 -4 -1 -9 -65 -10 -143 l-3 -143 -42 -1 -43 -2 0 144 c0 108 -3 144
-12 145 -7 1 -65 2 -128 4 -63 1 -120 3 -125 4 -6 0 -11 21 -11 46 l1 45 137
0 138 0 0 135 0 135 45 0 45 0 0 -135z m-420 -494 c-5 -94 -7 -91 60 -91 l60
0 0 -34 c0 -31 -3 -34 -32 -37 -18 -2 -62 -2 -96 1 l-64 5 -1 97 c-2 90 -1 98
18 100 43 7 56 -3 55 -41z"/>
<path d="M0 2552 l0 -518 224 -132 c123 -73 228 -132 233 -132 5 0 9 50 8 112
l0 112 218 135 217 135 0 135 0 136 -151 90 c-82 50 -162 97 -177 106 -15 9
-147 89 -294 178 -147 88 -269 161 -272 161 -4 0 -6 -233 -6 -518z"/>
<path d="M1017 2243 c-235 -142 -427 -261 -427 -264 0 -3 17 -14 38 -26 20
-11 145 -82 277 -158 355 -204 567 -325 570 -325 2 0 168 99 370 220 202 121
369 220 371 220 7 0 116 72 112 74 -3 3 -505 298 -553 326 -16 9 -77 45 -133
79 -57 33 -108 61 -112 61 -5 0 -10 3 -12 8 -3 6 -61 42 -70 42 -2 0 -196
-116 -431 -257z"/>
<path d="M2348 1915 c-34 -23 -247 -153 -603 -369 -82 -50 -151 -94 -153 -98
-2 -5 -8 -8 -12 -8 -5 0 -29 -12 -53 -27 l-44 -26 1 -508 c0 -466 2 -507 17
-494 8 8 18 15 21 15 4 0 80 46 170 101 89 56 177 109 193 119 97 57 491 304
495 311 3 4 7 154 9 331 6 540 6 678 1 677 -3 0 -22 -11 -42 -24z"/>
</g>
</svg>
